<?xml version="1.0" encoding="utf-8"?>
<!-- Generator: Adobe Illustrator 24.1.0, SVG Export Plug-In . SVG Version: 6.00 Build 0)  -->
<svg version="1.1" id="Capa_1" xmlns="http://www.w3.org/2000/svg" xmlns:xlink="http://www.w3.org/1999/xlink" x="0px" y="0px"
	 viewBox="0 0 1080 306.32" style="enable-background:new 0 0 1080 306.32;" xml:space="preserve">
<style type="text/css">
	.st0{fill:#A64F03;}
	.st1{fill:#59462E;}
	.st2{opacity:0.28;}
	.st3{fill:#D99E32;}
	.st4{fill:#1D1D1B;}
	.st5{fill:#260F01;}
	.st6{fill:#FFFFFF;}
	.st7{opacity:0.14;fill:#D99E32;}
	.st8{fill:#F6F6F6;}
	.st9{opacity:0.49;}
	.st10{fill:#BF6B04;}
	.st11{fill:#BF6B04;stroke:#FFFFFF;stroke-width:3;stroke-miterlimit:10;}
</style>
<g>
	<path class="st3" d="M152.83,83.6c-0.74,0.01-1.49,0.02-2.23,0.04c-13.54,0.35-26.45,3.2-39.26,7.45
		c-6.76,2.25-13.61,4.96-20.54,8.12c-6.94,3.17-14.1,6.39-21.49,9.65c-0.54,0.41-1.49,0.87-2.84,1.38c-1.35,0.51-2.7,0.92-4.05,1.23
		c-1.76,0.4-4.01,0.23-4.89-1.68c-0.42-0.91-0.47-1.97-0.36-2.98c0.65-6.02,5.81-12.08,9.55-16.45c3.99-4.66,8.57-8.77,13.48-12.35
		c9.94-7.24,21.22-12.39,32.85-15.87c3.62-1.08,7.28-2,10.97-2.76c9.58-1.96,19.36-2.89,29.12-2.93
		c14.83-0.07,29.54,2.16,43.74,6.58c14.05,4.4,26.71,10.78,37.97,19.16c11.26,8.38,20.4,18.65,27.43,30.8
		c7.03,12.16,10.54,25.9,10.54,41.22c0,11.03-1.8,21.05-5.41,30.04c-3.6,8.99-8.42,17.06-14.46,24.21
		c-6.04,7.16-13.07,13.28-21.08,18.39c-8.02,5.11-16.44,9.4-25.27,12.87c-8.83,3.47-17.84,6.02-27.03,7.66
		c-9.19,1.63-17.93,2.45-26.21,2.45c-16.58,0-32.88-2.2-48.92-6.59c-16.04-4.4-31.08-10.98-45.13-19.77h0.27
		c-1.44-0.81-3.02-1.84-4.73-3.06c-1.72-1.23-3.34-2.5-4.87-3.83c-1.53-1.33-2.8-2.61-3.78-3.83c-0.99-1.23-1.49-2.35-1.49-3.37
		c0-1.02,0.54-1.53,1.62-1.53s2.34,0.21,3.78,0.61c1.44,0.41,2.88,0.97,4.32,1.69c1.44,0.72,2.52,1.18,3.24,1.38
		c14.05,5.11,28.06,9.09,42.03,11.95c13.96,2.86,28.6,4.4,43.92,4.6c5.76,0,12.47-0.51,20.13-1.53c7.66-1.02,15.45-2.71,23.38-5.06
		c7.93-2.35,15.72-5.41,23.38-9.19c7.66-3.78,14.5-8.48,20.54-14.1c6.03-5.62,10.9-12.15,14.59-19.61
		c3.69-7.46,5.54-15.98,5.54-25.59c0-8.99-1.76-17.01-5.27-24.06c-3.51-7.05-8.11-13.13-13.78-18.24
		C211.11,91.77,180.8,83.34,152.83,83.6z"/>
	<path class="st3" d="M93.55,171.83c0-4.22,0-9.46,0-15.7c0-6.24,0.14-12.72,0.43-19.45c0.29-6.72,0.77-13.25,1.44-19.59
		c0.67-6.34,1.59-11.81,2.74-16.42c0.96-1.92,2.69-2.69,5.19-2.3c2.49,0.39,4.99,1.44,7.49,3.17c2.49,1.73,4.7,3.7,6.63,5.91
		c1.92,2.21,2.88,3.99,2.88,5.33c0,5.57-0.39,11.43-1.15,17.57c-0.77,6.15-1.15,11.62-1.15,16.42c-0.39,5.19-0.62,10.52-0.72,15.99
		c-0.1,5.47-0.39,10.95-0.87,16.42c-0.48,5.47-1.3,10.8-2.45,15.99c-1.15,5.19-2.98,9.99-5.47,14.4c-0.39,0.77-0.91,1.73-1.58,2.88
		c-0.68,1.15-1.44,2.26-2.3,3.31c-0.86,1.06-1.78,1.97-2.74,2.74c-0.96,0.77-1.83,1.15-2.59,1.15c-1.54,0-2.74-1.58-3.6-4.75
		c-0.87-3.17-1.44-7.15-1.73-11.96c-0.29-4.8-0.43-9.98-0.43-15.56C93.55,181.82,93.55,176.64,93.55,171.83z"/>
	<path class="st3" d="M65.02,167.41c0-2.77,0-6.2,0-10.3c0-4.09,0.09-8.35,0.28-12.76c0.19-4.41,0.5-8.69,0.95-12.85
		c0.44-4.16,1.04-7.75,1.8-10.77c0.63-1.26,1.76-1.76,3.4-1.51c1.64,0.25,3.27,0.95,4.91,2.08c1.64,1.13,3.09,2.43,4.35,3.87
		c1.26,1.45,1.89,2.62,1.89,3.5c0,3.66-0.25,7.5-0.76,11.53c-0.5,4.03-0.76,7.62-0.76,10.77c-0.25,3.4-0.41,6.9-0.47,10.49
		c-0.07,3.59-0.25,7.18-0.57,10.77c-0.32,3.59-0.85,7.09-1.61,10.49c-0.76,3.4-1.95,6.55-3.59,9.45c-0.25,0.5-0.6,1.13-1.04,1.89
		c-0.44,0.76-0.95,1.48-1.51,2.17c-0.57,0.69-1.17,1.29-1.8,1.8c-0.63,0.5-1.2,0.76-1.7,0.76c-1.01,0-1.8-1.04-2.36-3.12
		c-0.57-2.08-0.95-4.69-1.13-7.84c-0.19-3.15-0.28-6.55-0.28-10.21C65.02,173.96,65.02,170.56,65.02,167.41z"/>
	<path class="st6" d="M113.11,78.47c-0.79,0.27-1.76,0.61-2.93,1.02c-1.16,0.4-2.38,0.81-3.64,1.21c-1.26,0.4-2.5,0.77-3.71,1.11
		c-1.21,0.34-2.26,0.59-3.17,0.76c-0.39,0.02-0.61-0.13-0.63-0.43c-0.03-0.31,0.07-0.65,0.3-1.05c0.22-0.39,0.51-0.77,0.84-1.13
		c0.34-0.36,0.63-0.58,0.88-0.67c1.04-0.36,2.15-0.7,3.32-1.01c1.18-0.31,2.21-0.62,3.11-0.93c0.98-0.29,1.98-0.61,3.01-0.95
		c1.02-0.34,2.06-0.67,3.1-0.97c1.04-0.3,2.06-0.55,3.08-0.76c1.01-0.21,1.98-0.31,2.9-0.32c0.16-0.01,0.36-0.01,0.6-0.01
		c0.24,0,0.48,0.02,0.71,0.04c0.23,0.03,0.44,0.07,0.62,0.13c0.18,0.06,0.29,0.13,0.32,0.22c0.06,0.17-0.19,0.41-0.75,0.71
		c-0.56,0.3-1.28,0.63-2.16,0.97c-0.88,0.34-1.84,0.7-2.88,1.06C114.97,77.82,114,78.16,113.11,78.47z"/>
	<path class="st6" d="M178.8,74.15c-0.83-0.09-1.86-0.2-3.08-0.34c-1.22-0.13-2.49-0.29-3.81-0.47c-1.31-0.18-2.59-0.37-3.83-0.59
		c-1.23-0.22-2.3-0.44-3.19-0.68c-0.36-0.15-0.49-0.38-0.39-0.66c0.11-0.29,0.35-0.56,0.72-0.82c0.37-0.26,0.79-0.48,1.24-0.66
		c0.46-0.18,0.82-0.26,1.08-0.23c1.09,0.12,2.24,0.29,3.43,0.51c1.2,0.22,2.27,0.38,3.21,0.49c1.01,0.16,2.06,0.3,3.13,0.43
		c1.07,0.13,2.14,0.28,3.21,0.45c1.07,0.17,2.1,0.38,3.11,0.63c1,0.25,1.92,0.57,2.76,0.96c0.15,0.06,0.33,0.15,0.54,0.25
		c0.22,0.1,0.42,0.22,0.62,0.34c0.2,0.12,0.36,0.25,0.5,0.38c0.14,0.13,0.2,0.24,0.19,0.33c-0.02,0.18-0.35,0.29-0.98,0.32
		c-0.63,0.03-1.42,0.02-2.37-0.05c-0.95-0.07-1.96-0.16-3.06-0.28C180.76,74.37,179.75,74.26,178.8,74.15z"/>
	<path class="st6" d="M233.02,97.82c-0.67-0.49-1.5-1.11-2.49-1.84c-0.99-0.73-2.01-1.5-3.06-2.32c-1.05-0.82-2.05-1.63-3.01-2.43
		c-0.96-0.81-1.76-1.54-2.41-2.19c-0.24-0.32-0.24-0.57,0-0.77c0.24-0.19,0.58-0.31,1.03-0.35c0.45-0.04,0.92-0.02,1.41,0.06
		c0.49,0.08,0.84,0.19,1.05,0.35c0.89,0.65,1.79,1.38,2.71,2.17c0.92,0.79,1.76,1.47,2.53,2.03c0.8,0.64,1.63,1.29,2.49,1.94
		c0.86,0.65,1.71,1.32,2.55,2.01c0.84,0.69,1.62,1.39,2.37,2.11c0.74,0.72,1.38,1.46,1.9,2.21c0.09,0.13,0.21,0.29,0.35,0.49
		c0.14,0.2,0.26,0.4,0.36,0.61c0.11,0.21,0.19,0.4,0.24,0.58c0.05,0.18,0.05,0.31,0,0.38c-0.11,0.15-0.45,0.08-1.01-0.21
		c-0.56-0.29-1.24-0.7-2.02-1.24c-0.78-0.53-1.62-1.13-2.5-1.78C234.6,98.99,233.78,98.38,233.02,97.82z"/>
	<path class="st3" d="M235.64,196.83c0.71,0.32,1.22,0.82,1.55,1.52c0.33,0.69,0.26,1.39-0.2,2.09c-0.46,0.69-1.39,1.23-2.78,1.59
		c-1.39,0.37-3.41,0.35-6.06-0.06c-1.72-0.22-4.06-1.08-7.03-2.57c-2.96-1.49-6.33-3.29-10.09-5.39c-3.77-2.1-7.81-4.4-12.14-6.88
		c-4.33-2.49-8.73-4.9-13.2-7.25c-4.48-2.35-8.93-4.46-13.35-6.35c-4.43-1.88-8.57-3.27-12.42-4.16c-0.32,2.21-0.67,4.5-1.07,6.88
		c-0.4,2.38-0.85,4.56-1.38,6.54c-0.52,1.98-1.1,3.6-1.73,4.86c-0.63,1.26-1.31,1.87-2.03,1.84c-0.79-0.04-1.36-0.97-1.71-2.82
		c-0.35-1.84-0.62-3.93-0.8-6.27c-0.18-2.33-0.26-4.59-0.24-6.78c0.03-2.18,0.05-3.6,0.08-4.24l0.17-3.75
		c-1.77-0.72-3.29-1.56-4.54-2.51c-1.26-0.95-1.86-1.93-1.82-2.93c0.02-0.36,0.25-0.67,0.69-0.94c0.45-0.27,1.24-0.37,2.4-0.32
		c1.08,0.05,2.33,0.28,3.76,0.71c0.12-1,0.23-2.01,0.35-3.05c0.12-1.03,0.3-2.26,0.54-3.68c0.24-1.42,0.53-3.09,0.87-5.01
		c0.34-1.92,0.79-4.22,1.34-6.92c0.55-2.7,0.97-4.43,1.26-5.21c0.29-0.77,0.68-1.15,1.19-1.13c1.22,0.05,2.26,0.37,3.1,0.94
		c0.84,0.57,1.51,1.25,2.02,2.02c0.51,0.77,0.87,1.6,1.08,2.47c0.21,0.87,0.31,1.59,0.28,2.16c-0.16,3.5-0.62,6.99-1.39,10.46
		c-0.77,3.47-1.31,7.07-1.62,10.78c2.51,0.33,5.57,0.52,9.17,0.57c3.6,0.05,7.4-0.13,11.39-0.56c3.99-0.43,7.97-1.13,11.95-2.09
		c3.98-0.97,7.57-2.33,10.79-4.08c3.22-1.75,5.86-3.89,7.92-6.41c2.06-2.52,3.17-5.57,3.33-9.14c0.12-2.72-0.62-5.09-2.22-7.14
		c-1.6-2.04-3.73-3.8-6.37-5.28c-2.64-1.48-5.6-2.72-8.87-3.73c-3.27-1.01-6.54-1.81-9.79-2.43c-3.26-0.61-6.32-1.05-9.2-1.33
		c-2.87-0.27-5.18-0.45-6.9-0.53c-6.34-0.28-12.59,0.01-18.76,0.88c-6.17,0.87-12.13,2.54-17.87,5c-1.69,0.71-3.3,1.46-4.81,2.25
		c-1.52,0.79-3.27,1.68-5.26,2.66c-0.23,0.2-0.88,0.62-1.95,1.26c-1.08,0.63-2.18,1.17-3.32,1.62c-1.14,0.45-2.16,0.65-3.06,0.61
		c-0.9-0.04-1.32-0.63-1.27-1.78c0.05-1.21,0.59-2.35,1.61-3.42c1.02-1.06,2.06-2.07,3.11-3.03c3.31-3,6.96-5.47,10.94-7.4
		c3.98-1.93,8.13-3.45,12.44-4.54c4.31-1.1,8.69-1.83,13.14-2.2c4.45-0.37,8.84-0.46,13.16-0.27c2.3,0.1,5.21,0.36,8.73,0.77
		c3.52,0.41,7.22,1.04,11.12,1.9c3.89,0.86,7.81,1.98,11.75,3.37c3.94,1.4,7.45,3.13,10.54,5.2c3.08,2.07,5.55,4.53,7.41,7.37
		c1.86,2.84,2.7,6.12,2.53,9.84c-0.13,2.93-0.87,5.65-2.21,8.17c-1.34,2.52-3.1,4.79-5.28,6.8c-2.18,2.01-4.74,3.82-7.66,5.4
		c-2.92,1.59-6.03,2.92-9.32,3.99c-3.3,1.07-6.69,1.94-10.18,2.6c-3.49,0.67-6.94,1.07-10.34,1.2c4.04,1.69,8.56,3.73,13.58,6.14
		c5.01,2.41,10.13,4.88,15.36,7.4c5.23,2.53,10.38,4.99,15.47,7.41C226.61,192.96,231.32,195.06,235.64,196.83z"/>
</g>
<g>
	<g>
		<path class="st3" d="M408.45,109.64c-4.61,0-9.1,0.4-13.48,1.21c-4.38,0.81-8.73,1.84-13.05,3.11c-4.32,1.27-8.7,2.79-13.13,4.58
			c-4.44,1.79-9.02,3.6-13.74,5.44c-0.35,0.23-0.95,0.49-1.82,0.78c-0.86,0.29-1.73,0.52-2.59,0.69c-0.86,0.17-1.64,0.12-2.33-0.17
			c-0.69-0.29-1.04-0.95-1.04-1.99c0-1.04,0.32-2.07,0.95-3.11c0.63-1.04,1.24-1.84,1.81-2.42c3.34-4.38,7.35-8.06,12.01-11.06
			c4.67-2.99,9.65-5.38,14.95-7.17c5.3-1.79,10.74-3.08,16.33-3.89c5.59-0.8,10.98-1.21,16.16-1.21c9.1,0,18.15,1.24,27.13,3.72
			c8.99,2.48,17.08,6.08,24.28,10.8c7.2,4.73,13.05,10.52,17.54,17.37c4.49,6.86,6.74,14.6,6.74,23.25c0,6.22-1.15,11.87-3.46,16.94
			c-2.31,5.07-5.39,9.62-9.25,13.65c-3.86,4.03-8.36,7.49-13.48,10.37c-5.13,2.88-10.52,5.3-16.16,7.26
			c-5.65,1.96-11.41,3.4-17.28,4.32c-5.88,0.92-11.47,1.38-16.76,1.38c-10.6,0-21.03-1.24-31.28-3.72
			c-10.26-2.48-19.88-6.19-28.86-11.15h0.17c-0.92-0.46-1.93-1.04-3.02-1.73c-1.1-0.69-2.13-1.41-3.11-2.16
			c-0.98-0.75-1.79-1.47-2.42-2.16c-0.63-0.69-0.95-1.32-0.95-1.9c0-0.57,0.35-0.86,1.04-0.86s1.5,0.12,2.42,0.35
			c0.92,0.23,1.84,0.55,2.76,0.95c0.92,0.41,1.61,0.66,2.07,0.78c8.99,2.88,17.94,5.13,26.87,6.74c8.93,1.62,18.29,2.48,28.09,2.59
			c3.69,0,7.98-0.29,12.88-0.86c4.9-0.58,9.88-1.53,14.95-2.85c5.07-1.32,10.05-3.05,14.95-5.19c4.9-2.13,9.27-4.78,13.14-7.95
			c3.86-3.17,6.97-6.85,9.33-11.06c2.36-4.2,3.54-9.01,3.54-14.43c0-5.07-1.12-9.59-3.37-13.57s-5.18-7.4-8.81-10.28
			c-3.63-2.88-7.72-5.3-12.27-7.26c-4.55-1.96-9.16-3.54-13.83-4.75c-4.67-1.21-9.16-2.07-13.48-2.59
			C415.28,109.9,411.56,109.64,408.45,109.64z M396.7,159.42c0-2.53,0-5.67,0-9.42c0-3.74,0.09-7.63,0.26-11.67
			c0.17-4.03,0.46-7.95,0.86-11.75c0.4-3.8,0.95-7.09,1.64-9.85c0.57-1.15,1.61-1.61,3.11-1.38c1.5,0.23,2.99,0.86,4.49,1.9
			c1.5,1.04,2.82,2.22,3.98,3.54c1.15,1.33,1.73,2.39,1.73,3.2c0,3.34-0.23,6.86-0.69,10.54c-0.46,3.69-0.69,6.97-0.69,9.85
			c-0.23,3.11-0.38,6.31-0.43,9.59c-0.06,3.28-0.23,6.57-0.52,9.85c-0.29,3.28-0.78,6.48-1.47,9.59c-0.69,3.11-1.79,5.99-3.28,8.64
			c-0.23,0.46-0.55,1.04-0.95,1.73c-0.4,0.69-0.86,1.36-1.38,1.99c-0.52,0.63-1.07,1.18-1.64,1.64c-0.58,0.46-1.1,0.69-1.56,0.69
			c-0.92,0-1.64-0.95-2.16-2.85c-0.52-1.9-0.86-4.29-1.04-7.17c-0.17-2.88-0.26-5.99-0.26-9.33
			C396.7,165.41,396.7,162.3,396.7,159.42z"/>
		<path class="st3" d="M509.9,191.39c-4.26,0-7.66-1.09-10.2-3.28c-2.54-2.19-4.29-4.9-5.27-8.12c-0.98-3.22-1.27-6.74-0.86-10.54
			c0.41-3.8,1.38-7.29,2.94-10.46c1.56-3.17,3.6-5.79,6.14-7.86c2.53-2.07,5.53-2.99,8.99-2.77c4.03,0.23,7.32,1.44,9.85,3.63
			c2.53,2.19,4.38,4.9,5.53,8.12c1.15,3.23,1.64,6.65,1.47,10.28c-0.17,3.63-1.01,7-2.51,10.11c-1.5,3.11-3.6,5.7-6.31,7.78
			C516.96,190.35,513.7,191.39,509.9,191.39z M512.15,183.61c1.27,0.12,2.3-0.49,3.11-1.82c0.81-1.32,1.38-3.05,1.73-5.18
			c0.35-2.13,0.49-4.46,0.43-7c-0.06-2.53-0.35-4.9-0.86-7.09c-0.52-2.19-1.24-4.03-2.16-5.53c-0.92-1.5-2.02-2.25-3.28-2.25
			c-1.15,0-2.13,0.69-2.94,2.07c-0.81,1.38-1.41,3.11-1.81,5.18c-0.41,2.07-0.6,4.35-0.6,6.83c0,2.48,0.23,4.78,0.69,6.91
			c0.46,2.13,1.15,3.95,2.07,5.44C509.44,182.69,510.65,183.5,512.15,183.61z"/>
		<path class="st3" d="M559.16,150.6c1.5-0.81,2.99-0.81,4.49,0c1.5,0.81,2.65,1.93,3.46,3.37c0.8,1.44,1.06,2.94,0.78,4.49
			c-0.29,1.56-1.47,2.62-3.54,3.2c-1.84,0.46-3.77,0.92-5.79,1.38c-2.02,0.46-3.92,0.87-5.7,1.21c-1.79,0.35-3.31,0.66-4.58,0.95
			c-1.27,0.29-2.07,0.43-2.42,0.43c0.23,0,1.47,0.32,3.72,0.95c2.25,0.63,4.64,1.67,7.17,3.11c2.53,1.44,4.84,3.37,6.91,5.79
			c2.07,2.42,3.11,5.47,3.11,9.16c0,4.03-1.38,7.23-4.15,9.59c-2.77,2.36-5.99,3.95-9.68,4.75c-2.31,0.35-4.52,0.35-6.65,0
			c-2.13-0.35-4.03-1.07-5.7-2.16c-1.67-1.09-3.02-2.59-4.06-4.49c-1.04-1.9-1.56-4.18-1.56-6.83c0-2.19,0.72-3.92,2.16-5.19
			c1.44-1.27,2.99-2.07,4.67-2.42c1.67-0.35,3.17-0.17,4.49,0.52c1.32,0.69,1.87,1.9,1.64,3.63c-0.58,3.57-0.41,6.17,0.52,7.78
			c0.92,1.61,1.84,2.42,2.77,2.42c1.15,0,2.1-0.4,2.85-1.21c0.75-0.8,1.18-1.87,1.3-3.2c0.11-1.32-0.12-2.82-0.69-4.49
			c-0.58-1.67-1.5-3.37-2.77-5.1c-1.04-1.5-2.33-2.85-3.89-4.06c-1.56-1.21-3.11-2.25-4.67-3.11c-1.56-0.86-3.08-1.56-4.58-2.07
			c-1.5-0.52-2.71-0.89-3.63-1.12c-1.04-0.23-1.82-0.95-2.33-2.16s-0.75-2.48-0.69-3.8c0.06-1.32,0.52-2.53,1.38-3.63
			c0.86-1.09,2.16-1.64,3.89-1.64c3.46,0,7.17-0.55,11.15-1.64C552.5,153.92,556.05,152.45,559.16,150.6z"/>
		<path class="st3" d="M633.13,121.39c0-2.77,0.75-4.69,2.25-5.79c1.5-1.09,3.11-1.58,4.84-1.47c1.73,0.12,3.25,0.75,4.58,1.9
			c1.32,1.15,1.82,2.65,1.47,4.49c-0.23,1.38-0.58,4.01-1.04,7.86c-0.46,3.86-0.95,8.33-1.47,13.39c-0.52,5.07-0.95,10.31-1.3,15.73
			c-0.35,5.42-0.52,10.43-0.52,15.04c0,4.61,0.2,8.38,0.6,11.32c0.4,2.94,1.18,4.41,2.33,4.41c1.04,0,2.1-0.98,3.2-2.94
			c1.09-1.96,2.16-4.23,3.2-6.83c1.04-2.59,1.93-5.13,2.68-7.6c0.75-2.48,1.24-4.29,1.47-5.44c0.35-1.15,0.89-1.93,1.64-2.33
			c0.75-0.4,1.5-0.52,2.25-0.35c0.75,0.17,1.38,0.6,1.9,1.3c0.52,0.69,0.66,1.61,0.43,2.77c-0.23,1.15-0.75,3.4-1.56,6.74
			c-0.81,3.34-2.02,6.77-3.63,10.28c-1.61,3.52-3.72,6.65-6.31,9.42c-2.59,2.77-5.68,4.15-9.25,4.15c-2.65,0-4.7-1.07-6.14-3.2
			c-1.44-2.13-2.57-4.93-3.37-8.38c-0.92,2.19-2.16,4.15-3.72,5.88c-1.56,1.73-3.49,3-5.79,3.8c-2.54,0.92-4.73,1.04-6.57,0.35
			c-3.34-0.8-5.99-2.62-7.95-5.44c-1.96-2.82-3.31-6.11-4.06-9.85c-0.75-3.74-0.83-7.63-0.26-11.67c0.58-4.03,1.75-7.66,3.54-10.89
			c1.79-3.22,4.17-5.73,7.17-7.52c2.99-1.78,6.62-2.33,10.89-1.64c2.3,0.35,4.32,1.56,6.05,3.63c0.46-6.57,0.98-12.67,1.56-18.32
			C632.84,128.54,633.13,124.28,633.13,121.39z M629.15,164.08c-0.23-1.61-0.66-3.22-1.3-4.84c-0.63-1.61-1.58-2.53-2.85-2.77
			c-1.84-0.35-3.49,0.23-4.93,1.73c-1.44,1.5-2.62,3.43-3.54,5.79c-0.92,2.36-1.58,4.99-1.99,7.86c-0.41,2.88-0.52,5.62-0.35,8.21
			c0.17,2.59,0.66,4.78,1.47,6.57c0.8,1.79,1.96,2.8,3.46,3.02c1.5,0.23,2.91-0.46,4.23-2.07c1.32-1.61,2.48-3.69,3.46-6.22
			c0.98-2.53,1.7-5.36,2.16-8.47C629.44,169.79,629.5,166.85,629.15,164.08z"/>
		<path class="st3" d="M684.11,165.64c-0.92,1.27-2.07,2.31-3.46,3.11c-1.38,0.81-2.88,1.47-4.49,1.99
			c-1.61,0.52-3.26,0.89-4.93,1.12c-1.67,0.23-3.14,0.41-4.41,0.52c-0.35,2.42-0.55,4.78-0.6,7.09c-0.06,2.31,0.06,4.38,0.35,6.22
			c0.29,1.84,0.75,3.4,1.38,4.67c0.63,1.27,1.53,2.07,2.68,2.42c1.5,0.46,3.11,0.2,4.84-0.78c1.73-0.98,3.4-2.33,5.01-4.06
			c1.61-1.73,3.17-3.74,4.67-6.05c1.5-2.3,2.82-4.52,3.98-6.65c1.15-2.13,2.13-4.09,2.94-5.88c0.8-1.79,1.32-3.08,1.56-3.89
			c0.35-1.04,0.89-1.73,1.64-2.07c0.75-0.35,1.47-0.46,2.16-0.35c0.69,0.12,1.27,0.49,1.73,1.12c0.46,0.63,0.57,1.47,0.35,2.51
			c-0.23,0.69-0.63,2.05-1.21,4.06c-0.58,2.02-1.41,4.29-2.51,6.83c-1.1,2.54-2.42,5.16-3.98,7.86c-1.56,2.71-3.43,5.18-5.62,7.43
			c-2.19,2.25-4.7,4.12-7.52,5.62c-2.83,1.5-5.96,2.25-9.42,2.25c-4.15,0-7.38-1.44-9.68-4.32c-2.31-2.88-3.86-6.51-4.67-10.89
			c-0.8-4.38-0.95-9.07-0.43-14.09c0.52-5.01,1.56-9.71,3.11-14.09c1.56-4.38,3.51-8.01,5.88-10.89c2.36-2.88,4.98-4.32,7.86-4.32
			c2.77,0,5.21,0.95,7.35,2.85c2.13,1.9,3.77,4.12,4.93,6.65c1.15,2.54,1.81,5.13,1.99,7.78
			C685.75,162.07,685.26,164.14,684.11,165.64z M673.39,150.26c-0.81,0.35-1.67,1.82-2.59,4.41c-0.92,2.59-1.79,5.73-2.59,9.42
			c1.27,0,2.53-0.14,3.8-0.43c1.27-0.29,2.19-0.89,2.77-1.82c0.46-0.69,0.75-1.7,0.86-3.02c0.11-1.32,0.09-2.68-0.09-4.06
			c-0.17-1.38-0.46-2.53-0.86-3.46C674.29,150.37,673.85,150.03,673.39,150.26z"/>
		<path class="st3" d="M894.1,213.69c1.15,0.46,2.01,1.24,2.59,2.33c0.58,1.09,0.52,2.22-0.17,3.37c-0.69,1.15-2.13,2.07-4.32,2.76
			c-2.19,0.69-5.42,0.81-9.68,0.35c-2.77-0.23-6.57-1.44-11.41-3.63c-4.84-2.19-10.34-4.84-16.51-7.95
			c-6.16-3.11-12.79-6.51-19.88-10.2c-7.09-3.69-14.29-7.26-21.6-10.72c-7.32-3.46-14.58-6.54-21.78-9.25
			c-7.2-2.71-13.91-4.64-20.13-5.79c-0.35,3.57-0.75,7.29-1.21,11.15c-0.46,3.86-1.04,7.4-1.73,10.63c-0.69,3.22-1.5,5.88-2.42,7.95
			c-0.92,2.07-1.96,3.11-3.11,3.11c-1.27,0-2.25-1.47-2.94-4.41c-0.69-2.94-1.27-6.28-1.73-10.02c-0.46-3.74-0.75-7.37-0.86-10.89
			c-0.12-3.51-0.17-5.79-0.17-6.83v-6.05c-2.88-1.04-5.36-2.27-7.43-3.72c-2.07-1.44-3.11-2.97-3.11-4.58
			c0-0.57,0.35-1.09,1.04-1.56c0.69-0.46,1.96-0.69,3.8-0.69c1.73,0,3.74,0.29,6.05,0.86c0.11-1.61,0.23-3.25,0.35-4.93
			c0.11-1.67,0.32-3.66,0.6-5.96c0.29-2.3,0.63-5.01,1.04-8.12c0.4-3.11,0.95-6.85,1.64-11.23c0.69-4.38,1.24-7.2,1.64-8.47
			c0.4-1.27,1.01-1.9,1.81-1.9c1.96,0,3.63,0.43,5.01,1.3c1.38,0.86,2.51,1.9,3.37,3.11c0.86,1.21,1.5,2.51,1.9,3.89
			c0.4,1.38,0.61,2.54,0.61,3.46c0,5.65-0.49,11.29-1.47,16.94c-0.98,5.65-1.58,11.47-1.81,17.46c4.03,0.35,8.93,0.43,14.69,0.26
			c5.76-0.17,11.81-0.75,18.15-1.73c6.33-0.98,12.64-2.39,18.92-4.23c6.28-1.84,11.93-4.29,16.94-7.35
			c5.01-3.05,9.07-6.68,12.18-10.89c3.11-4.2,4.67-9.19,4.67-14.95c0-4.38-1.36-8.15-4.06-11.32c-2.71-3.17-6.22-5.85-10.54-8.04
			c-4.32-2.19-9.13-3.98-14.43-5.36c-5.3-1.38-10.57-2.45-15.81-3.2c-5.24-0.75-10.17-1.24-14.78-1.47
			c-4.61-0.23-8.3-0.35-11.06-0.35c-10.14,0-20.11,0.92-29.9,2.76c-9.79,1.85-19.18,4.96-28.17,9.33c-2.65,1.27-5.16,2.59-7.52,3.98
			c-2.36,1.38-5.1,2.94-8.21,4.67c-0.35,0.35-1.36,1.07-3.02,2.16c-1.67,1.1-3.4,2.05-5.18,2.85c-1.79,0.81-3.4,1.21-4.84,1.21
			c-1.44,0-2.16-0.92-2.16-2.76c0-1.96,0.78-3.83,2.33-5.62c1.56-1.79,3.14-3.48,4.75-5.1c5.07-5.07,10.72-9.3,16.94-12.7
			c6.22-3.4,12.73-6.13,19.53-8.21c6.8-2.07,13.74-3.57,20.83-4.49c7.09-0.92,14.09-1.38,21-1.38c3.69,0,8.35,0.2,14,0.6
			c5.64,0.41,11.61,1.15,17.89,2.25c6.28,1.1,12.62,2.62,19.01,4.58c6.39,1.96,12.12,4.49,17.2,7.6c5.07,3.11,9.19,6.89,12.36,11.32
			c3.17,4.44,4.75,9.65,4.75,15.64c0,4.73-0.98,9.16-2.94,13.31c-1.96,4.15-4.61,7.92-7.95,11.32c-3.34,3.4-7.29,6.48-11.84,9.25
			c-4.55,2.76-9.42,5.13-14.6,7.09c-5.18,1.96-10.54,3.6-16.07,4.93c-5.53,1.33-11,2.22-16.42,2.68c6.57,2.42,13.94,5.39,22.12,8.9
			c8.18,3.52,16.53,7.12,25.06,10.8c8.53,3.69,16.94,7.29,25.23,10.8C879.41,208.12,887.07,211.15,894.1,213.69z"/>
		<path class="st3" d="M868.69,155.61c0-1.96,0.72-3.43,2.16-4.41c1.44-0.98,3.02-1.56,4.75-1.73c1.73-0.17,3.28,0.06,4.67,0.69
			c1.38,0.63,2.01,1.58,1.9,2.85c-0.23,3.69-0.58,7.55-1.04,11.58c-0.46,4.03-0.92,7.78-1.38,11.23c-0.46,3.46-0.75,6.37-0.86,8.73
			c-0.12,2.36,0.17,3.66,0.86,3.89c0.57,0.23,1.21-0.2,1.9-1.3c0.69-1.09,1.38-2.56,2.07-4.41c0.69-1.84,1.41-3.92,2.16-6.22
			c0.75-2.3,1.47-4.61,2.16-6.91c0.69-2.3,1.32-4.49,1.9-6.57c0.57-2.07,1.09-3.74,1.56-5.01c0.11-1.73,0.89-2.79,2.33-3.2
			c1.44-0.4,2.97-0.37,4.58,0.09c1.61,0.46,3.02,1.15,4.23,2.07c1.21,0.92,1.76,1.9,1.64,2.94c-0.46,2.07-0.89,4.67-1.3,7.78
			c-0.41,3.11-0.66,6.11-0.78,8.99c-0.12,2.88-0.03,5.36,0.26,7.43c0.29,2.07,0.95,3.11,1.99,3.11c0.69,0,1.53-0.89,2.51-2.68
			c0.98-1.78,1.93-3.89,2.85-6.31c0.92-2.42,1.78-4.84,2.59-7.26c0.8-2.42,1.32-4.26,1.56-5.53c0.23-1.15,0.75-1.93,1.56-2.33
			c0.8-0.4,1.61-0.52,2.42-0.35c0.81,0.17,1.47,0.6,1.99,1.3c0.52,0.69,0.6,1.56,0.26,2.59c-0.23,0.92-0.72,2.65-1.47,5.18
			c-0.75,2.54-1.73,5.3-2.94,8.3c-1.21,3-2.65,5.88-4.32,8.64c-1.67,2.77-3.54,4.78-5.62,6.05c-1.27,0.81-2.68,1.15-4.23,1.04
			c-1.56-0.11-3.05-0.55-4.49-1.3c-1.44-0.75-2.71-1.84-3.8-3.28c-1.1-1.44-1.81-3.14-2.16-5.1c-0.35-1.73-0.52-3.69-0.52-5.88
			c-1.04,3.23-2.25,6.28-3.63,9.16c-1.38,2.88-3,5.24-4.84,7.09c-1.15,1.27-2.51,1.99-4.06,2.16c-1.56,0.17-3.05-0.09-4.49-0.78
			c-1.44-0.69-2.71-1.7-3.8-3.02c-1.1-1.32-1.82-2.85-2.16-4.58c-0.35-1.73-0.52-3.92-0.52-6.57c0-2.65,0.09-5.53,0.26-8.64
			c0.17-3.11,0.41-6.34,0.69-9.68C868.37,162.13,868.58,158.84,868.69,155.61z"/>
		<path class="st3" d="M915.87,139.2c0-0.81,0.03-1.58,0.09-2.33c0.06-0.75,0.09-1.41,0.09-1.99c0-2.76,0.75-4.69,2.25-5.79
			c1.5-1.09,3.11-1.58,4.84-1.47c1.73,0.12,3.25,0.75,4.58,1.9c1.32,1.15,1.82,2.65,1.47,4.49l-0.86,4.49h4.15
			c2.19,0,3.77,0.38,4.75,1.12c0.98,0.75,1.47,1.56,1.47,2.42s-0.52,1.64-1.56,2.33c-1.04,0.69-2.48,1.04-4.32,1.04h-5.18
			c-0.46,4.15-0.86,8.73-1.21,13.74c-0.35,5.01-0.58,9.74-0.69,14.17c-0.12,4.44-0.06,8.12,0.17,11.06
			c0.23,2.94,0.75,4.41,1.56,4.41c0.69,0,1.64-1.04,2.85-3.11c1.21-2.07,2.45-4.46,3.72-7.17c1.27-2.71,2.42-5.36,3.46-7.95
			c1.04-2.59,1.73-4.35,2.07-5.27c0.23-1.04,0.75-1.73,1.56-2.07c0.81-0.35,1.58-0.43,2.33-0.26c0.75,0.17,1.38,0.58,1.9,1.21
			c0.52,0.63,0.6,1.47,0.26,2.51c-0.69,2.31-1.61,5.3-2.76,8.99c-1.15,3.69-2.59,7.26-4.32,10.72c-1.73,3.46-3.8,6.45-6.22,8.99
			c-2.42,2.53-5.3,3.8-8.64,3.8c-2.19,0-3.98-0.86-5.36-2.59c-1.38-1.73-2.42-4-3.11-6.83c-0.69-2.82-1.12-6.08-1.3-9.76
			c-0.17-3.69-0.2-7.49-0.09-11.41c0.12-3.92,0.35-7.86,0.69-11.84s0.63-7.63,0.86-10.97h-4.15c-1.84,0-3.25-0.35-4.23-1.04
			c-0.98-0.69-1.5-1.44-1.56-2.25c-0.06-0.8,0.38-1.56,1.3-2.25c0.92-0.69,2.42-1.04,4.49-1.04H915.87z"/>
		<path class="st3" d="M959.77,148.7c1.61,0.35,3.02,1.1,4.23,2.25c1.21,1.15,2.22,2.42,3.02,3.8c0.92-1.04,2.07-1.61,3.46-1.73
			c1.38-0.11,2.71,0.09,3.98,0.6c1.27,0.52,2.3,1.33,3.11,2.42c0.81,1.1,1.09,2.39,0.86,3.89c-0.46,2.07-0.89,4.67-1.3,7.78
			c-0.41,3.11-0.66,6.11-0.78,8.99c-0.12,2.88-0.03,5.36,0.26,7.43c0.29,2.07,0.89,3.11,1.81,3.11c0.69,0,1.53-0.89,2.51-2.68
			c0.98-1.78,1.96-3.89,2.94-6.31c0.98-2.42,1.87-4.84,2.68-7.26c0.8-2.42,1.32-4.26,1.56-5.53c0.35-1.15,0.92-1.93,1.73-2.33
			c0.8-0.4,1.58-0.52,2.33-0.35c0.75,0.17,1.38,0.6,1.9,1.3c0.52,0.69,0.61,1.56,0.26,2.59c-0.23,0.69-0.6,1.99-1.12,3.89
			c-0.52,1.9-1.18,4.01-1.99,6.31c-0.81,2.31-1.76,4.7-2.85,7.17c-1.1,2.48-2.36,4.67-3.8,6.57c-1.44,1.9-3.05,3.37-4.84,4.41
			c-1.79,1.04-3.72,1.27-5.79,0.69c-3.34-0.92-5.76-2.94-7.26-6.05c-0.92,2.77-2.19,5.27-3.8,7.52c-1.61,2.25-3.69,3.89-6.22,4.93
			c-2.42,0.8-4.55,0.98-6.4,0.52c-3.34-0.92-5.99-3-7.95-6.22c-1.96-3.22-3.28-6.97-3.98-11.23c-0.69-4.26-0.75-8.7-0.17-13.31
			c0.58-4.61,1.76-8.75,3.54-12.44c1.79-3.69,4.18-6.59,7.17-8.73C951.88,148.56,955.51,147.9,959.77,148.7z M964.27,166.16
			c-0.23-1.96-0.66-3.86-1.3-5.7c-0.63-1.84-1.58-2.88-2.85-3.11c-1.84-0.35-3.49,0.32-4.93,1.99c-1.44,1.67-2.62,3.89-3.54,6.65
			c-0.92,2.77-1.58,5.79-1.99,9.07c-0.41,3.28-0.52,6.39-0.35,9.33c0.17,2.94,0.63,5.44,1.38,7.52c0.75,2.07,1.87,3.23,3.37,3.46
			c1.5,0.23,2.91-0.57,4.23-2.42c1.32-1.84,2.48-4.2,3.46-7.09c0.98-2.88,1.73-6.08,2.25-9.59
			C964.52,172.75,964.61,169.38,964.27,166.16z"/>
	</g>
</g>
</svg>
