<?xml version="1.0" encoding="utf-8"?>
<!-- Generator: Adobe Illustrator 24.1.0, SVG Export Plug-In . SVG Version: 6.00 Build 0)  -->
<svg version="1.1" id="Capa_1" xmlns="http://www.w3.org/2000/svg" xmlns:xlink="http://www.w3.org/1999/xlink" x="0px" y="0px"
	 viewBox="0 0 304.18 306.32" style="enable-background:new 0 0 304.18 306.32;" xml:space="preserve">
<style type="text/css">
	.st0{fill:#A64F03;}
	.st1{fill:#59462E;}
	.st2{opacity:0.28;}
	.st3{fill:#D99E32;}
	.st4{fill:#1D1D1B;}
	.st5{fill:#260F01;}
	.st6{fill:#FFFFFF;}
	.st7{opacity:0.14;fill:#D99E32;}
	.st8{fill:#F6F6F6;}
	.st9{opacity:0.49;}
	.st10{fill:#BF6B04;}
	.st11{fill:#BF6B04;stroke:#FFFFFF;stroke-width:3;stroke-miterlimit:10;}
</style>
<g>
	<path class="st6" d="M146.15,83.6c-0.74,0.01-1.49,0.02-2.23,0.04c-13.54,0.35-26.45,3.2-39.26,7.45
		c-6.76,2.25-13.61,4.96-20.54,8.12c-6.94,3.17-14.1,6.39-21.49,9.65c-0.54,0.41-1.49,0.87-2.84,1.38c-1.35,0.51-2.7,0.92-4.05,1.23
		c-1.76,0.4-4.01,0.23-4.89-1.68c-0.42-0.91-0.47-1.97-0.36-2.98c0.65-6.02,5.81-12.08,9.55-16.45c3.99-4.66,8.57-8.77,13.48-12.35
		c9.94-7.24,21.22-12.39,32.85-15.87c3.62-1.08,7.28-2,10.97-2.76c9.58-1.96,19.36-2.89,29.12-2.93
		c14.83-0.07,29.54,2.16,43.74,6.58c14.05,4.4,26.71,10.78,37.97,19.16c11.26,8.38,20.4,18.65,27.43,30.8
		c7.03,12.16,10.54,25.9,10.54,41.22c0,11.03-1.8,21.05-5.41,30.04c-3.6,8.99-8.42,17.06-14.46,24.21
		c-6.04,7.16-13.07,13.28-21.08,18.39c-8.02,5.11-16.44,9.4-25.27,12.87c-8.83,3.47-17.84,6.02-27.03,7.66
		c-9.19,1.63-17.93,2.45-26.21,2.45c-16.58,0-32.88-2.2-48.92-6.59c-16.04-4.4-31.08-10.98-45.13-19.77h0.27
		c-1.44-0.81-3.02-1.84-4.73-3.06c-1.72-1.23-3.34-2.5-4.87-3.83c-1.53-1.33-2.8-2.61-3.78-3.83c-0.99-1.23-1.49-2.35-1.49-3.37
		c0-1.02,0.54-1.53,1.62-1.53s2.34,0.21,3.78,0.61c1.44,0.41,2.88,0.97,4.32,1.69c1.44,0.72,2.52,1.18,3.24,1.38
		c14.05,5.11,28.06,9.09,42.03,11.95c13.96,2.86,28.6,4.4,43.92,4.6c5.76,0,12.47-0.51,20.13-1.53c7.66-1.02,15.45-2.71,23.38-5.06
		c7.93-2.35,15.72-5.41,23.38-9.19c7.66-3.78,14.5-8.48,20.54-14.1c6.03-5.62,10.9-12.15,14.59-19.61
		c3.69-7.46,5.54-15.98,5.54-25.59c0-8.99-1.76-17.01-5.27-24.06c-3.51-7.05-8.11-13.13-13.78-18.24
		C204.43,91.77,174.12,83.34,146.15,83.6z"/>
	<path class="st6" d="M86.87,171.83c0-4.22,0-9.46,0-15.7c0-6.24,0.14-12.72,0.43-19.45c0.29-6.72,0.77-13.25,1.44-19.59
		c0.67-6.34,1.59-11.81,2.74-16.42c0.96-1.92,2.69-2.69,5.19-2.3c2.49,0.39,4.99,1.44,7.49,3.17c2.49,1.73,4.7,3.7,6.63,5.91
		c1.92,2.21,2.88,3.99,2.88,5.33c0,5.57-0.39,11.43-1.15,17.57c-0.77,6.15-1.15,11.62-1.15,16.42c-0.39,5.19-0.62,10.52-0.72,15.99
		c-0.1,5.47-0.39,10.95-0.87,16.42c-0.48,5.47-1.3,10.8-2.45,15.99c-1.15,5.19-2.98,9.99-5.47,14.4c-0.39,0.77-0.91,1.73-1.58,2.88
		c-0.68,1.15-1.44,2.26-2.3,3.31c-0.86,1.06-1.78,1.97-2.74,2.74c-0.96,0.77-1.83,1.15-2.59,1.15c-1.54,0-2.74-1.58-3.6-4.75
		c-0.87-3.17-1.44-7.15-1.73-11.96c-0.29-4.8-0.43-9.98-0.43-15.56C86.87,181.82,86.87,176.64,86.87,171.83z"/>
	<path class="st6" d="M58.34,167.41c0-2.77,0-6.2,0-10.3c0-4.09,0.09-8.35,0.28-12.76c0.19-4.41,0.5-8.69,0.95-12.85
		c0.44-4.16,1.04-7.75,1.8-10.77c0.63-1.26,1.76-1.76,3.4-1.51c1.64,0.25,3.27,0.95,4.91,2.08c1.64,1.13,3.09,2.43,4.35,3.87
		c1.26,1.45,1.89,2.62,1.89,3.5c0,3.66-0.25,7.5-0.76,11.53c-0.5,4.03-0.76,7.62-0.76,10.77c-0.25,3.4-0.41,6.9-0.47,10.49
		c-0.07,3.59-0.25,7.18-0.57,10.77c-0.32,3.59-0.85,7.09-1.61,10.49c-0.76,3.4-1.95,6.55-3.59,9.45c-0.25,0.5-0.6,1.13-1.04,1.89
		c-0.44,0.76-0.95,1.48-1.51,2.17c-0.57,0.69-1.17,1.29-1.8,1.8c-0.63,0.5-1.2,0.76-1.7,0.76c-1.01,0-1.8-1.04-2.36-3.12
		c-0.57-2.08-0.95-4.69-1.13-7.84c-0.19-3.15-0.28-6.55-0.28-10.21C58.34,173.96,58.34,170.56,58.34,167.41z"/>
	<path class="st3" d="M106.42,78.47c-0.79,0.27-1.76,0.61-2.93,1.02c-1.16,0.4-2.38,0.81-3.64,1.21c-1.26,0.4-2.5,0.77-3.71,1.11
		c-1.21,0.34-2.26,0.59-3.17,0.76c-0.39,0.02-0.61-0.13-0.63-0.43c-0.03-0.31,0.07-0.65,0.3-1.05c0.22-0.39,0.51-0.77,0.84-1.13
		c0.34-0.36,0.63-0.58,0.88-0.67c1.04-0.36,2.15-0.7,3.32-1.01c1.18-0.31,2.21-0.62,3.11-0.93c0.98-0.29,1.98-0.61,3.01-0.95
		c1.02-0.34,2.06-0.67,3.1-0.97c1.04-0.3,2.06-0.55,3.08-0.76c1.01-0.21,1.98-0.31,2.9-0.32c0.16-0.01,0.36-0.01,0.6-0.01
		c0.24,0,0.48,0.02,0.71,0.04c0.23,0.03,0.44,0.07,0.62,0.13c0.18,0.06,0.29,0.13,0.32,0.22c0.06,0.17-0.19,0.41-0.75,0.71
		c-0.56,0.3-1.28,0.63-2.16,0.97c-0.88,0.34-1.84,0.7-2.88,1.06C108.29,77.82,107.32,78.16,106.42,78.47z"/>
	<path class="st3" d="M172.12,74.15c-0.83-0.09-1.86-0.2-3.08-0.34c-1.22-0.13-2.49-0.29-3.81-0.47c-1.31-0.18-2.59-0.37-3.83-0.59
		c-1.23-0.22-2.3-0.44-3.19-0.68c-0.36-0.15-0.49-0.38-0.39-0.66c0.11-0.29,0.35-0.56,0.72-0.82c0.37-0.26,0.79-0.48,1.24-0.66
		c0.46-0.18,0.82-0.26,1.08-0.23c1.09,0.12,2.24,0.29,3.43,0.51c1.2,0.22,2.27,0.38,3.21,0.49c1.01,0.16,2.06,0.3,3.13,0.43
		c1.07,0.13,2.14,0.28,3.21,0.45c1.07,0.17,2.1,0.38,3.11,0.63c1,0.25,1.92,0.57,2.76,0.96c0.15,0.06,0.33,0.15,0.54,0.25
		c0.22,0.1,0.42,0.22,0.62,0.34c0.2,0.12,0.36,0.25,0.5,0.38c0.14,0.13,0.2,0.24,0.19,0.33c-0.02,0.18-0.35,0.29-0.98,0.32
		c-0.63,0.03-1.42,0.02-2.37-0.05c-0.95-0.07-1.96-0.16-3.06-0.28C174.08,74.37,173.06,74.26,172.12,74.15z"/>
	<path class="st3" d="M226.33,97.82c-0.67-0.49-1.5-1.11-2.49-1.84c-0.99-0.73-2.01-1.5-3.06-2.32c-1.05-0.82-2.05-1.63-3.01-2.43
		c-0.96-0.81-1.76-1.54-2.41-2.19c-0.24-0.32-0.24-0.57,0-0.77c0.24-0.19,0.58-0.31,1.03-0.35c0.45-0.04,0.92-0.02,1.41,0.06
		c0.49,0.08,0.84,0.19,1.05,0.35c0.89,0.65,1.79,1.38,2.71,2.17c0.92,0.79,1.76,1.47,2.53,2.03c0.8,0.64,1.63,1.29,2.49,1.94
		c0.86,0.65,1.71,1.32,2.55,2.01c0.84,0.69,1.62,1.39,2.37,2.11c0.74,0.72,1.38,1.46,1.9,2.21c0.09,0.13,0.21,0.29,0.35,0.49
		c0.14,0.2,0.26,0.4,0.36,0.61c0.11,0.21,0.19,0.4,0.24,0.58c0.05,0.18,0.05,0.31,0,0.38c-0.11,0.15-0.45,0.08-1.01-0.21
		c-0.56-0.29-1.24-0.7-2.02-1.24c-0.78-0.53-1.62-1.13-2.5-1.78C227.92,98.99,227.1,98.38,226.33,97.82z"/>
	<path class="st6" d="M228.96,196.83c0.71,0.32,1.22,0.82,1.55,1.52c0.33,0.69,0.26,1.39-0.2,2.09c-0.46,0.69-1.39,1.23-2.78,1.59
		c-1.39,0.37-3.41,0.35-6.06-0.06c-1.72-0.22-4.06-1.08-7.03-2.57c-2.96-1.49-6.33-3.29-10.09-5.39c-3.77-2.1-7.81-4.4-12.14-6.88
		c-4.33-2.49-8.73-4.9-13.2-7.25c-4.48-2.35-8.93-4.46-13.35-6.35c-4.43-1.88-8.57-3.27-12.42-4.16c-0.32,2.21-0.67,4.5-1.07,6.88
		c-0.4,2.38-0.85,4.56-1.38,6.54c-0.52,1.98-1.1,3.6-1.73,4.86c-0.63,1.26-1.31,1.87-2.03,1.84c-0.79-0.04-1.36-0.97-1.71-2.82
		c-0.35-1.84-0.62-3.93-0.8-6.27c-0.18-2.33-0.26-4.59-0.24-6.78c0.03-2.18,0.05-3.6,0.08-4.24l0.17-3.75
		c-1.77-0.72-3.29-1.56-4.54-2.51c-1.26-0.95-1.86-1.93-1.82-2.93c0.02-0.36,0.25-0.67,0.69-0.94c0.45-0.27,1.24-0.37,2.4-0.32
		c1.08,0.05,2.33,0.28,3.76,0.71c0.12-1,0.23-2.01,0.35-3.05c0.12-1.03,0.3-2.26,0.54-3.68c0.24-1.42,0.53-3.09,0.87-5.01
		c0.34-1.92,0.79-4.22,1.34-6.92c0.55-2.7,0.97-4.43,1.26-5.21c0.29-0.77,0.68-1.15,1.19-1.13c1.22,0.05,2.26,0.37,3.1,0.94
		c0.84,0.57,1.51,1.25,2.02,2.02c0.51,0.77,0.87,1.6,1.08,2.47c0.21,0.87,0.31,1.59,0.28,2.16c-0.16,3.5-0.62,6.99-1.39,10.46
		c-0.77,3.47-1.31,7.07-1.62,10.78c2.51,0.33,5.57,0.52,9.17,0.57c3.6,0.05,7.4-0.13,11.39-0.56c3.99-0.43,7.97-1.13,11.95-2.09
		c3.98-0.97,7.57-2.33,10.79-4.08c3.22-1.75,5.86-3.89,7.92-6.41c2.06-2.52,3.17-5.57,3.33-9.14c0.12-2.72-0.62-5.09-2.22-7.14
		c-1.6-2.04-3.73-3.8-6.37-5.28c-2.64-1.48-5.6-2.72-8.87-3.73c-3.27-1.01-6.54-1.81-9.79-2.43c-3.26-0.61-6.32-1.05-9.2-1.33
		c-2.87-0.27-5.18-0.45-6.9-0.53c-6.34-0.28-12.59,0.01-18.76,0.88c-6.17,0.87-12.13,2.54-17.87,5c-1.69,0.71-3.3,1.46-4.81,2.25
		c-1.52,0.79-3.27,1.68-5.26,2.66c-0.23,0.2-0.88,0.62-1.95,1.26c-1.08,0.63-2.18,1.17-3.32,1.62c-1.14,0.45-2.16,0.65-3.06,0.61
		c-0.9-0.04-1.32-0.63-1.27-1.78c0.05-1.21,0.59-2.35,1.61-3.42c1.02-1.06,2.06-2.07,3.11-3.03c3.31-3,6.96-5.47,10.94-7.4
		c3.98-1.93,8.13-3.45,12.44-4.54c4.31-1.1,8.69-1.83,13.14-2.2c4.45-0.37,8.84-0.46,13.16-0.27c2.3,0.1,5.21,0.36,8.73,0.77
		c3.52,0.41,7.22,1.04,11.12,1.9c3.89,0.86,7.81,1.98,11.75,3.37c3.94,1.4,7.45,3.13,10.54,5.2c3.08,2.07,5.55,4.53,7.41,7.37
		c1.86,2.84,2.7,6.12,2.53,9.84c-0.13,2.93-0.87,5.65-2.21,8.17c-1.34,2.52-3.1,4.79-5.28,6.8c-2.18,2.01-4.74,3.82-7.66,5.4
		c-2.92,1.59-6.03,2.92-9.32,3.99c-3.3,1.07-6.69,1.94-10.18,2.6c-3.49,0.67-6.94,1.07-10.34,1.2c4.04,1.69,8.56,3.73,13.58,6.14
		c5.01,2.41,10.13,4.88,15.36,7.4c5.23,2.53,10.38,4.99,15.47,7.41C219.93,192.96,224.63,195.06,228.96,196.83z"/>
</g>
</svg>
